<svg xmlns="http://www.w3.org/2000/svg" viewBox="0 0 277.999 129.791"><defs><style>.a{fill:#7800ff;}.b{fill:#fff;}.c{fill:#000014;}</style></defs><g transform="translate(0.03)"><g transform="translate(208.416)"><path class="a" d="M192.24,42.161H177.218L165.1,21.081,177.218,0h38.627L210.8,8.962h-28.4l-6.943,12.118L182.394,33.2h14.9Z" transform="translate(-165.1)"/></g><g transform="translate(230.633)"><path class="a" d="M219.686,0,182.7,66.145h10.351L230.037,0Z" transform="translate(-182.7)"/></g><path class="b" d="M70.156,25.536,78.109,39.3,70.156,53.055H54.377L46.425,39.3l7.953-13.759H70.156M75.206,16.7h-26l-13,22.6,13,22.6h26l13-22.6-13-22.6Z" transform="translate(9.504 4.381)"/><path class="b" d="M38.348,52.928H18.277L10.325,39.3l7.953-13.759H38.348V16.7H13.1L.1,39.3l13,22.469H38.348Z" transform="translate(0.034 4.381)"/><path class="b" d="M83.3,25.536h20.071L111.323,39.3l-7.953,13.633H83.3v8.836h25.12L121.548,39.3,108.42,16.7H83.3Z" transform="translate(21.859 4.381)"/><rect class="b" width="22.469" height="8.836" transform="translate(152.748 39.258)"/><rect class="b" width="34.209" height="8.836" transform="translate(152.748 21.081)"/><rect class="b" width="34.209" height="8.836" transform="translate(152.748 57.309)"/><rect class="b" width="45.191" height="8.836" transform="translate(161.503 21.063) rotate(90)"/><rect class="b" width="42.414" height="8.836" transform="translate(93.293 84.575)"/><path class="b" d="M165.256,75.836,173.209,89.6l-7.953,13.759H149.477L141.525,89.6l7.953-13.759h15.779M170.306,67h-26l-13,22.6,13,22.6h26l13-22.6-13-22.6Z" transform="translate(34.45 17.575)"/><rect class="b" width="45.191" height="8.836" transform="translate(118.85 84.545) rotate(90)"/><rect class="b" width="45.191" height="8.836" transform="translate(155.471 84.531) rotate(90)"/><path class="b" d="M38.6,112.065,58.8,67l7.2,5.3L48.825,112.065Z" transform="translate(10.133 17.575)"/><path class="b" d="M80.092,112.065,59.9,67l-7.2,5.3,17.167,39.763Z" transform="translate(13.832 17.575)"/><g transform="translate(-0.03 84.515)"><rect class="b" width="45.191" height="8.836" transform="translate(8.836) rotate(90)"/><rect class="b" width="45.191" height="8.836" transform="translate(40.055 0.086) rotate(90)"/><path class="b" d="M31.1,112.065.3,70.913,8.758,67l30.8,41.151Z" transform="translate(0.117 -66.939)"/></g><g transform="translate(226.443 84.501)"><rect class="b" width="45.191" height="8.836" transform="translate(8.836 0) rotate(90)"/><rect class="b" width="45.191" height="8.836" transform="translate(40.055 0.086) rotate(90)"/><path class="b" d="M210.5,112.065,179.7,70.913,188.158,67l30.8,41.151Z" transform="translate(-179.297 -66.926)"/></g><rect class="b" width="4.797" height="5.807" transform="translate(69.057 84.575)"/><path class="c" d="M148.1,11.4Z" transform="translate(38.857 2.99)"/></g></svg>